<svg width="272" height="71" viewBox="0 0 272 71" fill="none" xmlns="http://www.w3.org/2000/svg">
    <g filter="url(#2tofyfbvja)">
        <path fill-rule="evenodd" clip-rule="evenodd" d="M.039 40.497h122.305v1.696H.039v-1.696zM.039 14.13H138.08v-1.695H.039v1.695zM172.014 14.13H272v-1.695h-99.986v1.695zM172.014 40.497H272v1.696h-99.986v-1.696z" fill="#FFC551"/>
        <path d="M4.895 19.716c1.153 0 2.133.43 2.942 1.287.374-.045.673-.361.898-.948h.314l-.067 4.381h-.427a20.338 20.338 0 0 0-.18-1.49 2.783 2.783 0 0 0-.493-1.243c-.704-1.038-1.714-1.558-3.032-1.558-.703 0-1.302.279-1.796.836-.494.542-.741 1.106-.741 1.694 0 .632.3 1.227.898 1.784.599.557 1.392 1.016 2.38 1.377 1.363.512 2.455 1.167 3.279 1.965.838.798 1.257 1.694 1.257 2.688 0 1.28-.419 2.318-1.257 3.116-.839.798-2.23 1.197-4.177 1.197-.42 0-.823-.045-1.212-.135a3.994 3.994 0 0 1-.966-.339l-.719-.407a5.501 5.501 0 0 1-.494-.36c-.299.135-.576.443-.83.925H0l.045-4.11h.449c.254 1.234.689 2.19 1.302 2.868.63.678 1.565 1.016 2.807 1.016 2.096 0 3.144-1.016 3.144-3.049 0-1.324-1.108-2.378-3.323-3.161-1.198-.422-2.141-1.017-2.83-1.785-.688-.782-1.033-1.61-1.033-2.484-.015-2.71 1.43-4.065 4.334-4.065zM19.286 33.628c.33-.422.494-.85.494-1.287l.022-11.54-2.357-.023c-.36 0-.681.135-.966.406-.284.271-.501.61-.651 1.016-.15.392-.277.783-.382 1.175a5.73 5.73 0 0 0-.157 1.084h-.427l.09-4.2c1.677.044 3.81.067 6.4.067 2.44 0 4.319-.023 5.636-.068l.067 4.2h-.449c-.134-2.408-.756-3.62-1.863-3.635l-2.628-.023.023 11.54c0 .528.142.957.426 1.288.225.27.839.414 1.842.429v.43h-6.894v-.43h.27c.793-.015 1.294-.158 1.504-.43zM41.828 34.464H31.409v-.362c0 .015.21.023.629.023.733 0 1.137-.18 1.212-.542.135-.813.202-3.72.202-8.718 0-2.198-.03-3.402-.09-3.613-.03-.166-.314-.309-.853-.43l-.808-.157v-.407c1.587.045 3.353.068 5.3.068 1.96 0 3.555-.023 4.782-.068l.067 3.275h-.426a5.353 5.353 0 0 0-.337-1.084c-.15-.362-.404-.715-.763-1.062-.36-.361-.771-.542-1.235-.542h-3.526v6.143h3.323c.69 0 1.063-.595 1.123-1.784h.54v4.065h-.45c-.075-1.174-.502-1.761-1.28-1.761h-3.256v5.397c0 .723.262 1.092.786 1.107h3.39c.39-.015.764-.346 1.123-.994.375-.662.6-1.325.674-1.987h.494l-.202 3.433zM60.306 34.509l-4.065-.068v-.18c0-.558-.202-1.597-.606-3.117-.688-2.53-1.602-3.802-2.74-3.817l-1.504-.023.023 5.601c0 .226.014.414.044.565.03.135.105.263.225.384.12.12.292.18.517.18.658.016.987.03.987.046l-.022.429c-.838-.06-1.953-.09-3.346-.09-1.108 0-1.96.022-2.56.067v-.384c1.168 0 1.782-.173 1.842-.52.06-.24.09-.504.09-.79.06-1.52.09-3.44.09-5.759 0-3.448-.03-5.352-.09-5.713-.03-.166-.307-.31-.831-.43l-.809-.18v-.407c.884.03 1.931.045 3.144.045h1.864a96.635 96.635 0 0 1 1.437-.022c.569 0 1.138.135 1.706.406.57.256 1.056.663 1.46 1.22.42.557.629 1.19.629 1.897 0 .768-.367 1.468-1.1 2.1-.734.618-1.602.941-2.605.971.464.046.89.181 1.28.407.389.21.703.437.943.677.24.241.479.588.718 1.04.255.451.427.812.517 1.083.105.271.254.67.449 1.197.464 1.235.763 1.942.898 2.123.33.467.8.715 1.415.745v.317zm-6.422-13.596a5.662 5.662 0 0 0-1.235-.113c-.45 0-.861.023-1.235.068v5.894l1.549.023c.838 0 1.474-.294 1.909-.88.449-.588.673-1.288.673-2.101 0-.693-.15-1.318-.449-1.875-.3-.557-.703-.895-1.212-1.016zM68.701 32.928c0 .677.27 1.016.809 1.016l2.896.023c.524 0 .98-.294 1.37-.881.404-.587.651-1.272.74-2.055h.495l-.36 3.5H64.3v-.361l.516-.023a5.03 5.03 0 0 0 1.056-.203c.344-.105.524-.24.539-.406.075-.813.112-3.41.112-7.792 0-2.484-.015-3.982-.045-4.494-.015-.196-.33-.339-.943-.43l-.943-.157v-.407l5.77-.023v.362c-1.047.06-1.586.278-1.616.655a821.51 821.51 0 0 0-.067 6.504v2.168c.015 1.07.022 2.07.022 3.004zM84.641 21.297l-.022 1.265c0 .828-.008 1.867-.022 3.116v3.388c0 2.047.014 3.508.044 4.381.015.437.584.655 1.707.655l.022.362a57.89 57.89 0 0 0-1.773-.023c-1.617 0-2.994.03-4.132.09v-.361h.09c1.107 0 1.691-.173 1.751-.52.075-.451.112-4.584.112-12.398 0-.166-.27-.309-.808-.43l-.83-.157v-.34c.703.061 1.608.091 2.716.091 1.153 0 2.051-.03 2.695-.09v.451c-1.033.076-1.55.249-1.55.52zM105.32 20.823c-.21.015-.449.045-.719.09a3.92 3.92 0 0 0-.831.203c-.299.106-.449.241-.449.407-.03.497-.052 1.882-.067 4.155l.067 9.034h-.786l-4.289-5.895c-2.844-3.93-4.348-5.977-4.513-6.142-.015 1.28-.023 2.326-.023 3.139 0 1.024.015 2.002.045 2.936.045.933.068 2.093.068 3.478v.903c0 .617.262.926.786.926.853 0 1.287.015 1.302.045v.407a40.926 40.926 0 0 0-2.493-.068c-1.032 0-1.908.03-2.627.09v-.361h.135c1.228 0 1.879-.173 1.954-.52.075-4.486.112-7.113.112-7.881 0-1.16-.015-2.5-.045-4.02-.03-.166-.382-.392-1.055-.678l-1.01-.406v-.407l4.153.023c.883 1.234 2.336 3.177 4.356 5.826l3.077 3.975.022-8.56c-.015-.21-.202-.376-.561-.496-.359-.136-.786-.203-1.28-.203h-.337l-.045-.52a20.16 20.16 0 0 0 2.336.113c.853 0 1.759-.03 2.717-.09v.497zM117.555 19.965a4.54 4.54 0 0 1 1.684.338c.584.226 1.033.452 1.347.678.315.226.599.421.854.587.209-.09.396-.286.561-.587.165-.301.262-.61.292-.926h.584l-.068 4.675h-.696c-.434-2.74-1.976-4.11-4.626-4.11-1.556 0-2.761.549-3.615 1.648-.838 1.1-1.257 2.944-1.257 5.533 0 1.145.149 2.19.449 3.14a5.418 5.418 0 0 0 1.527 2.348c.718.633 1.587.949 2.605.949a5.06 5.06 0 0 0 2.133-.475c.703-.33 1.242-.76 1.617-1.287.044-.587.067-1.197.067-1.83 0-.556-.023-.993-.067-1.31-.584-.345-1.288-.541-2.111-.586v-.497h5.995v.497c-.823.09-1.355.286-1.594.587-.06.12-.09.783-.09 1.987 0 .994.015 2.063.045 3.207h-.382l-.112-.338c-.06-.241-.217-.482-.472-.723a1.25 1.25 0 0 0-.92-.384c-.33.497-.898.94-1.707 1.332a5.603 5.603 0 0 1-2.425.565c-2.2 0-4.004-.655-5.412-1.965-1.392-1.31-2.088-3.056-2.088-5.24 0-1.159.165-2.198.494-3.116.33-.933.756-1.679 1.28-2.236a7.217 7.217 0 0 1 1.864-1.423 7.67 7.67 0 0 1 2.088-.813c.704-.15 1.422-.226 2.156-.226zM183.627 24.368c0 1.13-.427 2.026-1.28 2.688-.854.662-2.021.994-3.503.994-.524 0-.936-.038-1.235-.113l-.449-.136-.023 5.601c0 .271.157.474.472.61.314.135.696.203 1.145.203.12 0 .247-.007.382-.023v.34c0-.03-2.051-.046-6.153-.046v-.361h.112c1.123 0 1.699-.173 1.729-.52.045-.451.068-2.416.068-5.894 0-3.493-.023-5.646-.068-6.46-.015-.195-.269-.338-.763-.428l-.764-.158v-.407c.884 0 2.021.008 3.413.023 1.393.015 2.276.022 2.65.022 1.018 0 1.984.37 2.897 1.107.913.738 1.37 1.724 1.37 2.958zm-2.268 0c0-.466-.023-.858-.068-1.174a3.718 3.718 0 0 0-.247-1.016 1.66 1.66 0 0 0-.629-.836c-.284-.226-.651-.376-1.1-.451a5.512 5.512 0 0 0-.943-.068c-.135 0-.337.007-.606.022h-.606v6.617c0 .076.501.113 1.504.113.868 0 1.527-.316 1.976-.948.464-.648.704-1.4.719-2.259zM196.648 28.23h-4.514l-2.133 5.037a.436.436 0 0 0-.067.225c0 .211.164.384.494.52.329.12.658.18.988.18l.022.362-4.423.022v-.451h.044c.285 0 .592-.06.921-.18.329-.136.591-.317.786-.543.254-.301 1.31-2.582 3.166-6.843l2.785-6.369h.741l4.917 11.721c.419 1.01.876 1.634 1.37 1.875.135.06.277.105.427.136.149.015.291.022.426.022s.232.008.292.023l-.045.564a76.004 76.004 0 0 0-3.39-.067c-1.138 0-2.059.022-2.762.067l.022-.429c0 .015.135.023.404.023.539 0 .913-.128 1.123-.384.105-.12.157-.286.157-.497 0-.196-.045-.414-.135-.655l-.112-.339-1.504-4.02zm-4.244-.542h4.064l-1.998-4.878-2.066 4.878zM219.773 34.509l-4.064-.068v-.18c0-.558-.202-1.597-.606-3.117-.689-2.53-1.602-3.802-2.74-3.817l-1.504-.023.022 5.601c0 .226.015.414.045.565.03.135.105.263.225.384.12.12.292.18.516.18.659.016.988.03.988.046l-.022.429c-.838-.06-1.954-.09-3.346-.09-1.108 0-1.961.022-2.56.067v-.384c1.168 0 1.782-.173 1.841-.52.06-.24.09-.504.09-.79.06-1.52.09-3.44.09-5.759 0-3.448-.03-5.352-.09-5.713-.03-.166-.307-.31-.831-.43l-.808-.18v-.407c.883.03 1.931.046 3.144.046h1.864a95.541 95.541 0 0 1 1.437-.023c.569 0 1.137.135 1.706.406.569.256 1.056.663 1.46 1.22.419.557.629 1.19.629 1.897 0 .768-.367 1.468-1.101 2.1-.733.618-1.602.941-2.605.971.465.046.891.181 1.28.407.39.21.704.437.944.677.239.241.479.588.718 1.04.255.451.427.812.517 1.083.104.271.254.67.449 1.197.464 1.235.763 1.943.898 2.123.329.467.801.715 1.414.745v.317zm-6.422-13.596c-.329-.075-.741-.113-1.235-.113-.449 0-.86.023-1.235.068v5.894l1.55.023c.838 0 1.474-.294 1.908-.88.449-.588.674-1.288.674-2.101a3.9 3.9 0 0 0-.449-1.875c-.299-.557-.704-.895-1.213-1.016zM233.244 22.155c.015-.045.052-.135.112-.27.06-.136.09-.227.09-.272a.717.717 0 0 0-.404-.632 1.555 1.555 0 0 0-.741-.249l-.045-.338c.509.03 1.055.045 1.639.045a30.82 30.82 0 0 0 2.784-.113v.339l-.337.022c-.209.03-.471.098-.785.203-.315.106-.562.249-.741.43a25.398 25.398 0 0 0-2.111 2.258 83.48 83.48 0 0 0-2.178 2.755 74.238 74.238 0 0 1 1.796 2.44c.584.812 1.1 1.52 1.549 2.122.45.587 1.033 1.28 1.752 2.078.344.391.689.655 1.033.79.359.136.831.234 1.414.294l-.044.43-3.256-.136c-.479 0-.929.022-1.348.067-1.886-3.056-3.323-5.277-4.311-6.662l-1.145 1.49-.045 4.224c0 .436.569.655 1.706.655l.023.361a56.076 56.076 0 0 0-1.729-.022c-1.482 0-2.792.03-3.93.09v-.361h.09c.913 0 1.422-.174 1.527-.52.105-.452.157-3.448.157-8.988 0-2.123-.015-3.268-.045-3.433-.045-.166-.329-.309-.853-.43l-.808-.157v-.34c.703.061 1.631.091 2.784.091 1.228 0 2.171-.03 2.829-.09v.452c-1.107.075-1.691.248-1.751.519v7.317l2.605-3.049c1.721-2.047 2.627-3.184 2.717-3.41zM251.991 34.464h-10.419v-.362c0 .015.209.023.628.023.734 0 1.138-.18 1.213-.542.135-.813.202-3.72.202-8.718 0-2.198-.03-3.402-.09-3.613-.03-.166-.314-.309-.853-.43l-.808-.157v-.407c1.586.045 3.353.068 5.299.068 1.961 0 3.555-.023 4.783-.068l.067 3.275h-.426a5.347 5.347 0 0 0-.337-1.084c-.15-.362-.404-.715-.764-1.062-.359-.361-.771-.542-1.235-.542h-3.525v6.143h3.323c.689 0 1.063-.595 1.123-1.784h.539v4.065h-.449c-.075-1.174-.502-1.761-1.28-1.761h-3.256v5.397c0 .723.262 1.092.786 1.107h3.391c.389-.015.763-.346 1.122-.994.375-.662.599-1.325.674-1.987h.494l-.202 3.433zM270.468 34.509l-4.064-.068v-.18c0-.558-.202-1.597-.606-3.117-.689-2.53-1.602-3.802-2.74-3.817l-1.504-.023.022 5.601c0 .226.015.414.045.565.03.135.105.263.225.384.12.12.292.18.516.18.659.016.988.03.988.046l-.022.429c-.838-.06-1.954-.09-3.346-.09-1.108 0-1.961.022-2.56.067v-.384c1.168 0 1.782-.173 1.841-.52.06-.24.09-.504.09-.79.06-1.52.09-3.44.09-5.759 0-3.448-.03-5.352-.09-5.713-.03-.166-.307-.31-.831-.43l-.808-.18v-.407c.883.03 1.931.046 3.144.046h1.864a95.541 95.541 0 0 1 1.437-.023c.569 0 1.137.135 1.706.406.569.256 1.056.663 1.46 1.22.419.557.629 1.19.629 1.897 0 .768-.367 1.468-1.101 2.1-.733.618-1.602.941-2.605.971.465.046.891.181 1.28.407.39.21.704.437.944.677.239.241.479.588.718 1.04.255.451.427.812.517 1.083.104.271.254.67.449 1.197.464 1.235.763 1.943.898 2.123.329.467.801.715 1.414.745v.317zm-6.422-13.596c-.329-.075-.741-.113-1.235-.113-.449 0-.86.023-1.235.068v5.894l1.55.023c.838 0 1.474-.294 1.908-.88.449-.588.674-1.288.674-2.101a3.9 3.9 0 0 0-.449-1.875c-.299-.557-.704-.895-1.213-1.016z" fill="#FFC551"/>
        <path d="M116.834 67.81c.062.09.082.136.116.169.194.184.414.325.659.427 1.037.433 2.105.541 3.213.364 1.094-.178 2.094-.605 3.059-1.13 2.551-1.386 4.626-3.3 6.261-5.702a40.733 40.733 0 0 0 1.547-2.49c1.124-1.93 2.113-3.935 3.068-5.955.829-1.755 1.626-3.53 2.434-5.295.037-.08.063-.167.093-.245-.11-.104-.233-.096-.347-.115-1.458-.24-2.885-.6-4.246-1.188-1.108-.476-2.135-1.085-3.03-1.909-.879-.81-1.557-1.753-1.947-2.895-.321-.94-.412-1.906-.334-2.897.146-1.88.868-3.527 1.98-5.022.987-1.327 2.178-2.44 3.505-3.413 1.724-1.261 3.609-2.223 5.61-2.954 1.388-.504 2.801-.92 4.253-1.187.698-.128 1.403-.219 2.107-.314 1.086-.145 2.176-.187 3.271-.184 2.047 0 4.074.206 6.069.67 1.193.277 2.359.669 3.441 1.252 1.549.834 2.83 1.974 3.727 3.512.687 1.179.926 2.46.79 3.82a10.322 10.322 0 0 1-1.144 3.853c-.624 1.18-1.456 2.2-2.428 3.107-.094.089-.189.18-.293.275.039.011.069.029.082.022 1.868-1.094 3.488-2.464 4.639-4.332a9.515 9.515 0 0 0 1.323-3.71c.413-2.953-.332-5.611-2.017-8.032-.967-1.386-2.142-2.578-3.436-3.653a29.613 29.613 0 0 0-2.812-2.05c-1.28-.836-2.562-1.67-3.777-2.602a30.05 30.05 0 0 1-1.99-1.628c-1.103-1.005-1.998-2.177-2.586-3.566a7.333 7.333 0 0 1-.562-3.335c.103-1.757.767-3.278 1.883-4.615.717-.86 1.573-1.558 2.519-2.15 1.863-1.166 3.871-1.965 6.034-2.349a17.344 17.344 0 0 1 2.825-.26c.842 0 1.684.005 2.525.085 1.512.14 2.997.414 4.399 1.033.435.193.853.416 1.245.685 1.08.739 1.657 1.78 1.834 3.064.11.813.062 1.61-.162 2.399a5.925 5.925 0 0 1-.793 1.679c-.443.66-1.045 1.122-1.84 1.266-1.833.327-3.042-.865-3.328-2.046-.366-1.519.351-2.893 1.62-3.41.978-.4 1.933-.315 2.809.316.095.067.186.14.274.206.101-.042.073-.117.069-.174a2.395 2.395 0 0 0-.45-1.211 3.527 3.527 0 0 0-.655-.685c-1.026-.85-2.2-1.39-3.488-1.688-1.306-.301-2.627-.366-3.962-.262a12.047 12.047 0 0 0-3.928.975c-1.508.661-2.874 1.547-4.04 2.728-.512.52-.948 1.103-1.256 1.768-.672 1.45-.708 2.91-.049 4.375.306.68.728 1.287 1.206 1.855.737.871 1.588 1.619 2.491 2.312 1.058.813 2.18 1.528 3.333 2.195 1.473.852 2.893 1.786 4.223 2.854 1.225.988 2.361 2.071 3.332 3.317 1.058 1.357 1.875 2.843 2.338 4.512.401 1.445.524 2.914.325 4.403-.204 1.558-.743 2.999-1.542 4.342a16.942 16.942 0 0 1-5.152 5.454c-1.842 1.244-3.817 2.234-5.873 3.07a34.559 34.559 0 0 1-6.424 1.9c-1.148.224-2.308.402-3.473.517-1.22.119-2.439.208-3.665.225-.077 0-.155.01-.239.017-.028.057-.056.1-.073.148-.584 1.648-1.31 3.232-2.112 4.782-1.35 2.61-2.854 5.124-4.625 7.473-1.47 1.948-3.103 3.74-4.953 5.326a25.723 25.723 0 0 1-4.005 2.82c-.817.465-1.692.793-2.586 1.068a12.96 12.96 0 0 1-3.968.583 7.714 7.714 0 0 1-1.877-.234c-.267-.07-.53-.16-.782-.27-1.228-.521-1.941-1.468-2.169-2.773-.253-1.428.12-2.706 1.04-3.811.61-.733 1.424-1.001 2.361-.96 1.532.067 2.853 1.577 2.627 3.283-.164 1.24-1.403 2.676-3.213 2.427-.232-.033-.458-.109-.689-.165-.06-.015-.121-.035-.239-.067zm25.774-21.099c.234.065.43.024.622-.006.571-.094 1.142-.191 1.711-.3a24.269 24.269 0 0 0 3.462-.94c2.101-.74 3.908-1.93 5.447-3.55a18.718 18.718 0 0 0 2.994-4.218 9.39 9.39 0 0 0 .563-1.352 6.218 6.218 0 0 0 .2-3.25c-.196-.984-.642-1.842-1.232-2.635-.621-.832-1.427-1.441-2.342-1.905-.909-.464-1.877-.763-2.872-.966a20.455 20.455 0 0 0-2.739-.351 20.292 20.292 0 0 0-4.214.145 22.994 22.994 0 0 0-3.688.847c-1.704.535-3.324 1.252-4.817 2.245-1.61 1.07-2.995 2.38-4.07 3.995-.965 1.455-1.508 3.045-1.459 4.82.045 1.649.629 3.066 1.767 4.251.386.4.816.748 1.271 1.066 1.355.943 2.868 1.486 4.473 1.8.088.018.178.018.282.027.065-.128.127-.243.179-.362 1.751-3.91 3.494-7.818 5.252-11.723a14.47 14.47 0 0 1 2.68-3.998c.334-.353.718-.66 1.088-.98.108-.092.244-.155.375-.214.149-.065.265.033.235.198a2.877 2.877 0 0 1-.129.457c-.267.76-.556 1.514-.804 2.281-.745 2.304-1.376 4.64-1.978 6.982-.185.717-.349 1.441-.564 2.147-.502 1.658-1.03 3.307-1.545 4.96-.051.163-.095.33-.151.531l.003-.002z" fill="#fff"/>
    </g>
    <defs>
        <filter id="2tofyfbvja" x="0" y="0" width="272" height="71.38" filterUnits="userSpaceOnUse" color-interpolation-filters="sRGB">
            <feFlood flood-opacity="0" result="BackgroundImageFix"/>
            <feBlend in="SourceGraphic" in2="BackgroundImageFix" result="shape"/>
            <feColorMatrix in="SourceAlpha" values="0 0 0 0 0 0 0 0 0 0 0 0 0 0 0 0 0 0 127 0" result="hardAlpha"/>
            <feOffset dy="1"/>
            <feGaussianBlur stdDeviation=".5"/>
            <feComposite in2="hardAlpha" operator="arithmetic" k2="-1" k3="1"/>
            <feColorMatrix values="0 0 0 0 1 0 0 0 0 1 0 0 0 0 1 0 0 0 0.4 0"/>
            <feBlend mode="overlay" in2="shape" result="effect1_innerShadow_8005_15716"/>
        </filter>
    </defs>
</svg>
